Coordinates
version=1
nRows=18
nColumns=38
inDegrees=no

Units are S.I. units (second, meters, Newtons, ...)
If the header above contains a line with 'inDegrees', this indicates whether rotational values are in degrees (yes) or radians (no).

endheader
time	pelvis_tilt	pelvis_list	pelvis_rotation	pelvis_tx	pelvis_ty	pelvis_tz	hip_flexion_r	hip_adduction_r	hip_rotation_r	knee_angle_r	ankle_angle_r	subtalar_angle_r	mtp_angle_r	hip_flexion_l	hip_adduction_l	hip_rotation_l	knee_angle_l	ankle_angle_l	subtalar_angle_l	mtp_angle_l	lumbar_extension	lumbar_bending	lumbar_rotation	arm_flex_r	arm_add_r	arm_rot_r	elbow_flex_r	pro_sup_r	wrist_flex_r	wrist_dev_r	arm_flex_l	arm_add_l	arm_rot_l	elbow_flex_l	pro_sup_l	wrist_flex_l	wrist_dev_l
1.29	0.0306855	-0.00879774	0.0466664	1.04683	1.06192	-0.510352	-0.179516	-0.0527472	-0.343621	-0.579404	-0.167868	0.0473849	-0.000373762	0.297573	-0.0205353	-0.0803214	-0.238163	0.249909	0.0428336	-0.000193839	-0.25009	-0.00927282	0.120351	-0.145533	-0.269331	0.319132	2.27725	1.67085	-0.00221318	0.0181769	-0.72701	-0.168817	-0.220906	2.43499	1.39743	0.0209886	0.00443531
1.3	0.0325522	-0.00442962	0.0472202	1.04739	1.05817	-0.511183	-0.163308	-0.0681242	-0.35285	-0.647284	-0.153139	0.0473849	-0.000373762	0.297369	-0.0180989	-0.0880347	-0.256635	0.243808	0.0428336	-0.000193839	-0.250611	-0.0164144	0.109468	-0.155742	-0.274667	0.315893	2.2544	1.68119	-0.00221318	0.0181769	-0.716443	-0.170495	-0.228964	2.44282	1.38531	0.0209886	0.00443531
1.31	0.0350719	0.0013966	0.047933	1.04765	1.05356	-0.512088	-0.144742	-0.0859385	-0.360461	-0.719628	-0.130956	0.0473849	-0.000373762	0.299768	-0.0144313	-0.0940731	-0.289315	0.236535	0.0428336	-0.000193839	-0.252466	-0.0246555	0.0975253	-0.167865	-0.280665	0.307119	2.22744	1.69215	-0.00221318	0.0181769	-0.701675	-0.176613	-0.234416	2.44675	1.37284	0.0209886	0.00443531
1.32	0.0384779	0.00834302	0.0486454	1.04761	1.04824	-0.513032	-0.124311	-0.105251	-0.365569	-0.794691	-0.103426	0.0473849	-0.000373762	0.304147	-0.00972892	-0.0980643	-0.334049	0.230269	0.0428336	-0.000193839	-0.256036	-0.03365	0.0852084	-0.181739	-0.287011	0.292959	2.19632	1.70295	-0.00221318	0.0181769	-0.6823	-0.187034	-0.237032	2.44584	1.36091	0.0209886	0.00443531
1.33	0.0429822	0.0159508	0.0491594	1.04726	1.04246	-0.513969	-0.102345	-0.124877	-0.367228	-0.870738	-0.0728085	0.0473849	-0.000373762	0.309701	-0.00435082	-0.0999312	-0.388148	0.227483	0.0428336	-0.000193839	-0.261579	-0.0429942	0.0732584	-0.197112	-0.293301	0.273662	2.16064	1.71304	-0.00221318	0.0181769	-0.657933	-0.201365	-0.23659	2.43916	1.35031	0.0209886	0.00443531
1.34	0.0486923	0.0237176	0.0492379	1.04664	1.03653	-0.514839	-0.0790505	-0.143529	-0.36465	-0.946086	-0.0412095	0.0473849	-0.000373762	0.315437	0.00119701	-0.0998859	-0.448526	0.230393	0.0428336	-0.000193839	-0.269199	-0.0522429	0.0624269	-0.213644	-0.299093	0.249575	2.11968	1.72231	-0.00221318	0.0181769	-0.628271	-0.218976	-0.232858	2.42594	1.34167	0.0209886	0.00443531
1.35	0.0555826	0.0310795	0.0486184	1.04577	1.03073	-0.515576	-0.054545	-0.159984	-0.3574	-1.01913	-0.0103519	0.0473849	-0.000373762	0.320233	0.00631089	-0.0983927	-0.511874	0.240452	0.0428336	-0.000193839	-0.278811	-0.0609526	0.0534061	-0.230904	-0.303978	0.221188	2.07255	1.73115	-0.00221318	0.0181769	-0.59316	-0.239047	-0.225597	2.40573	1.33537	0.0209886	0.00443531
1.36	0.0634989	0.037465	0.0470449	1.04465	1.02524	-0.516118	-0.0288836	-0.173219	-0.345519	-1.08837	0.01853	0.0473849	-0.000373762	0.322954	0.0103536	-0.0960815	-0.574881	0.258048	0.0428336	-0.000193839	-0.290113	-0.0687031	0.0467242	-0.248361	-0.307667	0.189191	2.01845	1.74038	-0.00221318	0.0181769	-0.552684	-0.260614	-0.214627	2.37862	1.33156	0.0209886	0.00443531
1.37	0.0721406	0.0423559	0.0443235	1.0433	1.02016	-0.516414	-0.0020689	-0.18252	-0.329546	-1.15247	0.0446753	0.0473849	-0.000373762	0.322621	0.0127505	-0.0936183	-0.634496	0.282483	0.0428336	-0.000193839	-0.302597	-0.0751316	0.0426185	-0.265385	-0.310047	0.154541	1.9569	1.75111	-0.00221318	0.0181769	-0.507243	-0.282622	-0.199934	2.34537	1.33015	0.0209886	0.00443531
1.38	0.0810697	0.045364	0.0403828	1.04174	1.01556	-0.516436	0.0259305	-0.18755	-0.310457	-1.21026	0.0677126	0.0473849	-0.000373762	0.318554	0.0130915	-0.0915673	-0.688169	0.312179	0.0428336	-0.000193839	-0.315593	-0.0799655	0.0409358	-0.28128	-0.311224	0.118468	1.88803	1.76447	-0.00221318	0.0181769	-0.457613	-0.303978	-0.181781	2.30751	1.33084	0.0209886	0.00443531
1.39	0.0897899	0.0462816	0.0353061	1.04002	1.01155	-0.516184	0.0551429	-0.188345	-0.289525	-1.26078	0.0875664	0.0473849	-0.000373762	0.310438	0.0111984	-0.0903007	-0.734007	0.345047	0.0428336	-0.000193839	-0.328351	-0.0830318	0.0411537	-0.295416	-0.311511	0.0823617	1.81278	1.78132	-0.00221318	0.0181769	-0.404916	-0.323611	-0.160756	2.26734	1.3332	0.0209886	0.00443531
1.4	0.0978304	0.0450561	0.0293004	1.03821	1.00818	-0.515685	0.0855175	-0.185256	-0.268131	-1.30331	0.10439	0.0473849	-0.000373762	0.298284	0.00711022	-0.0899887	-0.770854	0.378899	0.0428336	-0.000193839	-0.34017	-0.0842137	0.0426206	-0.307509	-0.311383	0.0474561	1.73316	1.80202	-0.00221318	0.0181769	-0.350472	-0.340566	-0.13762	2.22769	1.33673	0.0209886	0.00443531
1.41	0.104764	0.0417921	0.0226304	1.03639	1.00551	-0.514988	0.116898	-0.178875	-0.247588	-1.33727	0.118508	0.0473849	-0.000373762	0.282334	0.00105952	-0.0906702	-0.798176	0.411754	0.0428336	-0.000193839	-0.3504	-0.0834659	0.0445629	-0.317593	-0.311429	0.0148789	1.65207	1.82628	-0.00221318	0.0181769	-0.295839	-0.354006	-0.113401	2.19167	1.34098	0.0209886	0.00443531
1.42	0.110272	0.0366582	0.0155214	1.03465	1.00358	-0.514153	0.14897	-0.169897	-0.229001	-1.36226	0.130373	0.0473849	-0.000373762	0.262925	-0.00664552	-0.0923373	-0.815971	0.442059	0.0428336	-0.000193839	-0.358531	-0.0807425	0.046401	-0.326189	-0.312249	-0.0146123	1.57303	1.85318	-0.00221318	0.0181769	-0.242575	-0.363278	-0.0891179	2.16222	1.34566	0.0209886	0.00443531
1.43	0.11417	0.0298231	0.0080999	1.03307	1.00238	-0.513245	0.181266	-0.158998	-0.213188	-1.378	0.140492	0.0473849	-0.000373762	0.240396	-0.0157098	-0.0950001	-0.824621	0.468749	0.0428336	-0.000193839	-0.36422	-0.0759777	0.0478833	-0.334248	-0.31435	-0.0406862	1.49987	1.88134	-0.00221318	0.0181769	-0.19207	-0.367967	-0.0656063	2.14178	1.35065	0.0209886	0.00443531
1.44	0.116385	0.0214433	0.000398205	1.03172	1.0019	-0.512316	0.213218	-0.146771	-0.200692	-1.38432	0.149349	0.0473849	-0.000373762	0.21506	-0.0258816	-0.0986971	-0.824749	0.49115	0.0428336	-0.000193839	-0.367284	-0.0691157	0.0490519	-0.342933	-0.318042	-0.0633616	1.43607	1.90919	-0.00221318	0.0181769	-0.145429	-0.36794	-0.0434093	2.13195	1.35606	0.0209886	0.00443531
1.45	0.11693	0.0116866	-0.00759484	1.03066	1.00214	-0.511397	0.244233	-0.133704	-0.191831	-1.38114	0.157328	0.0473849	-0.000373762	0.187231	-0.036936	-0.103471	-0.817117	0.508826	0.0428336	-0.000193839	-0.367676	-0.0601724	0.0501116	-0.353348	-0.323362	-0.0829101	1.38427	1.93509	-0.00221318	0.0181769	-0.103392	-0.363372	-0.0227097	2.13337	1.36212	0.0209886	0.00443531
1.46	0.115854	0.000770423	-0.0158669	1.02994	1.00308	-0.510489	0.273755	-0.120194	-0.18675	-1.36843	0.164662	0.0473849	-0.000373762	0.157275	-0.048636	-0.109335	-0.802573	0.521395	0.0428336	-0.000193839	-0.365468	-0.0492971	0.0512738	-0.366294	-0.330031	-0.0997935	1.34594	1.95761	-0.00221318	0.0181769	-0.0663046	-0.354753	-0.00331285	2.14569	1.36911	0.0209886	0.00443531
